<svg width="360" height="540" viewBox="0 0 360 540" fill="none" xmlns="http://www.w3.org/2000/svg">
<path d="M21.5 70V66.5H23.5V70C23.5 73.5984 26.4016 76.5 30 76.5C33.5984 76.5 36.5 73.5984 36.5 70V60C36.5 56.4016 33.5984 53.5 30 53.5H26.5V51.5H30C33.5984 51.5 36.5 48.5984 36.5 45V40C36.5 36.4016 33.5984 33.5 30 33.5C26.4016 33.5 23.5 36.4016 23.5 40V43.5H21.5V40C21.5 35.2884 25.2884 31.5 30 31.5C34.7116 31.5 38.5 35.2884 38.5 40V45C38.5 47.5495 37.3802 49.8126 35.6038 51.373L34.3209 52.5L35.6038 53.627C37.3802 55.1874 38.5 57.4505 38.5 60V70C38.5 74.7116 34.7116 78.5 30 78.5C25.2884 78.5 21.5 74.7116 21.5 70Z" fill="white" stroke="white" stroke-width="3"/>
<path d="M338.5 470V473.5H336.5V470C336.5 466.402 333.598 463.5 330 463.5C326.402 463.5 323.5 466.402 323.5 470V480C323.5 483.598 326.402 486.5 330 486.5H333.5V488.5H330C326.402 488.5 323.5 491.402 323.5 495V500C323.5 503.598 326.402 506.5 330 506.5C333.598 506.5 336.5 503.598 336.5 500V496.5H338.5V500C338.5 504.712 334.712 508.5 330 508.5C325.288 508.5 321.5 504.712 321.5 500V495C321.5 492.45 322.62 490.187 324.396 488.627L325.679 487.5L324.396 486.373C322.62 484.813 321.5 482.55 321.5 480V470C321.5 465.288 325.288 461.5 330 461.5C334.712 461.5 338.5 465.288 338.5 470Z" stroke="white" stroke-width="3"/>
<path d="M16.3972 112.5C16.4485 112.447 16.5022 112.391 16.5584 112.332C17.0875 111.779 17.829 110.99 18.6808 110.044C20.3804 108.155 22.5358 105.621 24.3192 103.073C26.1171 100.505 27.7703 97.3209 28.9658 94.8041C29.3627 93.9685 29.7112 93.2021 30 92.5502C30.2888 93.2021 30.6373 93.9685 31.0342 94.8041C32.2297 97.3209 33.8829 100.505 35.6808 103.073C37.4642 105.621 39.6196 108.155 41.3192 110.044C42.171 110.99 42.9125 111.779 43.4416 112.332C43.4978 112.391 43.5515 112.447 43.6028 112.5C43.5515 112.553 43.4978 112.609 43.4416 112.668C42.9125 113.221 42.171 114.01 41.3192 114.956C39.6196 116.845 37.4642 119.379 35.6808 121.927C33.8829 124.495 32.2297 127.679 31.0342 130.196C30.6373 131.031 30.2888 131.798 30 132.45C29.7112 131.798 29.3627 131.031 28.9658 130.196C27.7703 127.679 26.1171 124.495 24.3192 121.927C22.5358 119.379 20.3804 116.845 18.6808 114.956C17.829 114.01 17.0875 113.221 16.5584 112.668C16.5022 112.609 16.4485 112.553 16.3972 112.5Z" stroke="white" stroke-width="2"/>
<path d="M316.397 427.5C316.448 427.447 316.502 427.391 316.558 427.332C317.088 426.779 317.829 425.99 318.681 425.044C320.38 423.155 322.536 420.621 324.319 418.073C326.117 415.505 327.77 412.321 328.966 409.804C329.363 408.969 329.711 408.202 330 407.55C330.289 408.202 330.637 408.969 331.034 409.804C332.23 412.321 333.883 415.505 335.681 418.073C337.464 420.621 339.62 423.155 341.319 425.044C342.171 425.99 342.912 426.779 343.442 427.332C343.498 427.391 343.552 427.447 343.603 427.5C343.552 427.553 343.498 427.609 343.442 427.668C342.912 428.221 342.171 429.01 341.319 429.956C339.62 431.845 337.464 434.379 335.681 436.927C333.883 439.495 332.23 442.679 331.034 445.196C330.637 446.031 330.289 446.798 330 447.45C329.711 446.798 329.363 446.031 328.966 445.196C327.77 442.679 326.117 439.495 324.319 436.927C322.536 434.379 320.38 431.845 318.681 429.956C317.829 429.01 317.088 428.221 316.558 427.668C316.502 427.609 316.448 427.553 316.397 427.5Z" stroke="white" stroke-width="2"/>
<path d="M179.872 47.895C179.916 47.7927 179.959 47.693 180 47.5961C180.041 47.693 180.084 47.7927 180.128 47.895C180.804 49.4665 181.778 51.6656 182.972 54.1791C185.355 59.1959 188.633 65.505 192.181 70.5735C195.714 75.6213 199.995 80.6555 203.382 84.419C205.077 86.3029 206.553 87.873 207.606 88.9727C207.999 89.3833 208.333 89.7285 208.597 90C208.333 90.2715 207.999 90.6167 207.606 91.0273C206.553 92.127 205.077 93.6971 203.382 95.581C199.995 99.3445 195.714 104.379 192.181 109.427C188.633 114.495 185.355 120.804 182.972 125.821C181.778 128.334 180.804 130.534 180.128 132.105C180.084 132.207 180.041 132.307 180 132.404C179.959 132.307 179.916 132.207 179.872 132.105C179.196 130.534 178.222 128.334 177.028 125.821C174.645 120.804 171.367 114.495 167.819 109.427C164.286 104.379 160.005 99.3445 156.618 95.581C154.923 93.6971 153.447 92.127 152.394 91.0273C152.001 90.6167 151.667 90.2715 151.403 90C151.667 89.7285 152.001 89.3833 152.394 88.9727C153.447 87.873 154.923 86.3029 156.618 84.419C160.005 80.6555 164.286 75.6213 167.819 70.5735C171.367 65.505 174.645 59.1959 177.028 54.1791C178.222 51.6656 179.196 49.4665 179.872 47.895Z" stroke="white" stroke-width="2"/>
<path d="M179.872 227.895C179.916 227.793 179.959 227.693 180 227.596C180.041 227.693 180.084 227.793 180.128 227.895C180.804 229.466 181.778 231.666 182.972 234.179C185.355 239.196 188.633 245.505 192.181 250.573C195.714 255.621 199.995 260.655 203.382 264.419C205.077 266.303 206.553 267.873 207.606 268.973C207.999 269.383 208.333 269.728 208.597 270C208.333 270.272 207.999 270.617 207.606 271.027C206.553 272.127 205.077 273.697 203.382 275.581C199.995 279.345 195.714 284.379 192.181 289.427C188.633 294.495 185.355 300.804 182.972 305.821C181.778 308.334 180.804 310.534 180.128 312.105C180.084 312.207 180.041 312.307 180 312.404C179.959 312.307 179.916 312.207 179.872 312.105C179.196 310.534 178.222 308.334 177.028 305.821C174.645 300.804 171.367 294.495 167.819 289.427C164.286 284.379 160.005 279.345 156.618 275.581C154.923 273.697 153.447 272.127 152.394 271.027C152.001 270.617 151.667 270.272 151.403 270C151.667 269.728 152.001 269.383 152.394 268.973C153.447 267.873 154.923 266.303 156.618 264.419C160.005 260.655 164.286 255.621 167.819 250.573C171.367 245.505 174.645 239.196 177.028 234.179C178.222 231.666 179.196 229.466 179.872 227.895Z" stroke="white" stroke-width="2"/>
<path d="M179.872 407.895C179.916 407.793 179.959 407.693 180 407.596C180.041 407.693 180.084 407.793 180.128 407.895C180.804 409.466 181.778 411.666 182.972 414.179C185.355 419.196 188.633 425.505 192.181 430.573C195.714 435.621 199.995 440.655 203.382 444.419C205.077 446.303 206.553 447.873 207.606 448.973C207.999 449.383 208.333 449.728 208.597 450C208.333 450.272 207.999 450.617 207.606 451.027C206.553 452.127 205.077 453.697 203.382 455.581C199.995 459.345 195.714 464.379 192.181 469.427C188.633 474.495 185.355 480.804 182.972 485.821C181.778 488.334 180.804 490.534 180.128 492.105C180.084 492.207 180.041 492.307 180 492.404C179.959 492.307 179.916 492.207 179.872 492.105C179.196 490.534 178.222 488.334 177.028 485.821C174.645 480.804 171.367 474.495 167.819 469.427C164.286 464.379 160.005 459.345 156.618 455.581C154.923 453.697 153.447 452.127 152.394 451.027C152.001 450.617 151.667 450.272 151.403 450C151.667 449.728 152.001 449.383 152.394 448.973C153.447 447.873 154.923 446.303 156.618 444.419C160.005 440.655 164.286 435.621 167.819 430.573C171.367 425.505 174.645 419.196 177.028 414.179C178.222 411.666 179.196 409.466 179.872 407.895Z" stroke="white" stroke-width="2"/>
</svg>
