<svg width="360" height="540" viewBox="0 0 360 540" fill="none" xmlns="http://www.w3.org/2000/svg">
<path d="M25.8438 66H25.0079L24.8596 66.8226L22.6642 79H19.6961L28.3361 31H31.6639L40.3039 79H37.3358L35.1404 66.8226L34.9921 66H34.1562H25.8438ZM33.25 63H34.4456L34.2342 61.8232L30.9842 43.7295H29.0158L25.7658 61.8232L25.5544 63H26.75H33.25Z" fill="white" stroke="white" stroke-width="2"/>
<path d="M324.86 473.177L325.008 474H325.844H334.156H334.992L335.14 473.177L337.336 461H340.304L331.664 509H328.336L319.696 461H322.664L324.86 473.177ZM334.234 478.177L334.446 477H333.25H326.75H325.554L325.766 478.177L329.016 496.27H330.984L334.234 478.177Z" fill="white" stroke="white" stroke-width="2"/>
<path d="M180 313.078C179.74 312.65 179.426 312.133 179.069 311.542C177.966 309.721 176.444 307.194 174.766 304.372C171.407 298.724 167.434 291.915 164.946 287.219C164.431 286.247 163.913 285.282 163.395 284.318C160.646 279.198 157.927 274.137 155.944 268.482C155.795 268.058 155.645 267.633 155.495 267.208C153.283 260.93 151.002 254.46 151 247.822C151.018 246.912 151.035 245.96 151 244.982C151.004 239.662 152.624 234.884 155.193 231.458C157.766 228.028 161.243 226 165 226C168.836 226 172.047 227.598 174.322 230.478C176.613 233.378 178 237.64 178 243C178 244.267 178.7 245.5 180 245.5C181.3 245.5 182 244.267 182 243C182 237.64 183.387 233.378 185.678 230.478C187.953 227.598 191.164 226 195 226C198.757 226 202.234 228.028 204.807 231.458C207.378 234.886 208.998 239.666 209 244.99C208.981 245.886 208.972 246.837 209 247.827C208.997 254.463 206.717 260.932 204.505 267.208C204.355 267.633 204.205 268.058 204.056 268.482C202.073 274.137 199.354 279.198 196.605 284.318C196.087 285.282 195.569 286.247 195.054 287.219C192.566 291.915 188.593 298.724 185.234 304.372C183.556 307.194 182.034 309.721 180.931 311.542C180.574 312.133 180.26 312.65 180 313.078Z" stroke="white" stroke-width="2"/>
<path d="M30 133.075C29.9875 133.054 29.9748 133.033 29.962 133.012C29.4113 132.102 28.651 130.84 27.8128 129.431C26.133 126.606 24.1524 123.211 22.9149 120.876C22.6548 120.385 22.3937 119.899 22.1341 119.415C20.7594 116.855 19.4216 114.363 18.4436 111.575C18.3714 111.369 18.2989 111.164 18.2264 110.958C17.1142 107.801 16.0022 104.644 16 101.416C16.0089 100.966 16.0176 100.482 16 99.9825C16.0036 97.4236 16.7841 95.1458 17.9967 93.5289C19.2119 91.9087 20.8143 91 22.5 91C24.2646 91 25.7257 91.7289 26.7686 93.0489C27.8274 94.3889 28.5 96.4018 28.5 99C28.5 99.7667 28.95 100.75 30 100.75C31.05 100.75 31.5 99.7667 31.5 99C31.5 96.4018 32.1726 94.3889 33.2314 93.0489C34.2743 91.7289 35.7354 91 37.5 91C39.1857 91 40.7881 91.9087 42.0033 93.5289C43.2171 95.1473 43.9979 97.428 44 99.9898C43.9908 100.438 43.9857 100.918 44 101.42C43.9968 104.647 42.8853 107.802 41.7736 110.958C41.7011 111.164 41.6286 111.369 41.5564 111.575C40.5784 114.363 39.2406 116.855 37.8659 119.415C37.6062 119.899 37.3452 120.385 37.0851 120.876C35.8476 123.211 33.867 126.606 32.1872 129.431C31.349 130.84 30.5887 132.102 30.038 133.012C30.0252 133.033 30.0125 133.054 30 133.075ZM29.4963 99.0511C29.4963 99.0511 29.4964 99.0504 29.4968 99.049L29.4963 99.0511ZM30.5037 99.0511C30.5037 99.0511 30.5035 99.0504 30.5032 99.0489L30.5037 99.0511Z" stroke="white" stroke-width="2"/>
<path d="M330 406.925C330.013 406.946 330.025 406.967 330.038 406.988C330.589 407.898 331.349 409.16 332.187 410.569C333.867 413.394 335.848 416.789 337.085 419.124C337.345 419.615 337.606 420.102 337.866 420.585C339.241 423.145 340.578 425.637 341.556 428.425C341.629 428.631 341.701 428.836 341.774 429.042C342.885 432.198 343.997 435.353 344 438.58C343.986 439.082 343.991 439.563 344 440.01C343.998 442.572 343.217 444.853 342.003 446.471C340.788 448.091 339.186 449 337.5 449C335.735 449 334.274 448.271 333.231 446.951C332.173 445.611 331.5 443.598 331.5 441C331.5 440.233 331.05 439.25 330 439.25C328.95 439.25 328.5 440.233 328.5 441C328.5 443.598 327.827 445.611 326.769 446.951C325.726 448.271 324.265 449 322.5 449C320.814 449 319.212 448.091 317.997 446.471C316.784 444.854 316.004 442.576 316 440.017C316.018 439.518 316.009 439.034 316 438.584C316.002 435.356 317.114 432.199 318.226 429.042C318.299 428.836 318.371 428.631 318.444 428.425C319.422 425.637 320.759 423.145 322.134 420.585C322.394 420.101 322.655 419.615 322.915 419.124L322.031 418.656L322.915 419.124C324.152 416.789 326.133 413.394 327.813 410.569C328.651 409.16 329.411 407.898 329.962 406.988C329.975 406.967 329.987 406.946 330 406.925ZM330.503 440.951C330.503 440.95 330.504 440.949 330.504 440.949L330.503 440.951ZM329.496 440.949C329.496 440.949 329.497 440.95 329.497 440.951L329.496 440.949Z" stroke="white" stroke-width="2"/>
</svg>
